#!OML:ASF E:/inclinewalkrobotboard/Project1/Captureday1/Session1/subject1.ASF
:FULLY-SPECIFIED
:DEGREES
88
root 0 0 0 -1.0163247060350535 -2.757203656313653 -2.471859565031174
lowerback 9.404246317184967 0.35306601040931596 0.6716158751702275
upperback -0.017854336109651925 0.685966602077323 1.7364882430107733
thorax -5.189146629721165 0.35626195712472 1.3530559870124308
lowerneck -16.47517873068559 -2.9691192176789327 -1.936199428537019
upperneck 19.873289021975847 -3.8039324351672463 0.6923646173672404
head 9.048504899944682 -1.845864248843184 0.07888014149727107
rclavicle -6.614324848278308E-16 -4.784146168434273E-16
rhumerus -23.855579743746397 -18.859679531861357 -74.98454442419279
rradius 27.037195619058334
rwrist 6.429150542772167
rhand -15.853102636000937 21.004251553526558
rfingers 7.125020000000034
rthumb 10.320775393885508 -8.479821291814373
lclavicle -6.567009072732492E-16 -3.17696088364881E-16
lhumerus -29.661688260714975 1.426874083962006 78.04090696277237
lradius 28.74880360144316
lwrist 3.1589297001648102
lhand -23.822055088243925 23.321905522810095
lfingers 7.12502000000004
lthumb 2.5944486158047653 53.000064295970326
rfemur -2.713353038325451 -7.9145976642595315 14.207965729061456
rtibia 39.047532418117584
rfoot -8.944269375055992 -8.161552537116146
rtoes 6.326360126391549
lfemur -14.041728946682213 -0.5700719258325115 -20.74086019374493
ltibia 34.25320369091607
lfoot -9.113874637811989 -0.5259660478217896
ltoes -2.113347466056055
89
root 0 0 0 -0.9727349944496275 -2.778396916510374 -2.4816940968351444
lowerback 9.381906143303144 0.35381638197127485 0.6680582066342358
upperback -0.03288697094080639 0.6866341449412959 1.737605966964645
thorax -5.192629689738023 0.3567488135074563 1.3565396392437967
lowerneck -16.465941852335668 -2.964416781694534 -1.9332810323289147
upperneck 19.8798522682525 -3.7988152566694793 0.6968803626951572
head 9.049650029325988 -1.8431607914398964 0.08028906975020256
rclavicle -6.602014181053453E-16 -4.793438612592766E-16
rhumerus -23.777549925934807 -18.86756833820881 -74.9363311219848
rradius 27.03909867885627
rwrist 6.464748366638453
rhand -15.820326168942087 20.977231078916446
rfingers 7.125020000000033
rthumb 10.352049738350784 -8.502780372459032
lclavicle -6.556521017307641E-16 -3.194669366694971E-16
lhumerus -29.623898400358172 1.435668246515017 77.98083304882941
lradius 28.758349608221792
lwrist 3.1302908444999638
lhand -23.780463186443853 23.323400447450304
lfingers 7.125020000000039
lthumb 2.6349066094281355 52.996868110400484
rfemur -2.5242612149313857 -8.14197091819534 13.987017523342317
rtibia 39.05309785431409
rfoot -8.970495200793213 -8.191043178468146
rtoes 6.368204566750734
lfemur -14.12450120839371 -0.5461991330615437 -20.759673490422962
ltibia 34.281974963267764
lfoot -9.142219692299408 -0.4857424279299032
ltoes -2.0816668890671384
90
root 0 0 0 -0.9450497180393427 -2.790799060656804 -2.487424820533212
lowerback 9.367462809144591 0.35412937793684995 0.6655977586653394
upperback -0.04250580169952656 0.6868839022973395 1.7384417252273514
thorax -5.194759796281833 0.35697496306824844 1.358974119393844
lowerneck -16.459883835341426 -2.9616402392372247 -1.931580885450221
upperneck 19.884370209942027 -3.795753947679085 0.6996647188535148
head 9.050497977228773 -1.841611846629064 0.0811618063712144
rclavicle -6.594378060755539E-16 -4.7985274874898E-16
rhumerus -23.7208711357192 -18.87323921773162 -74.9014490357708
rradius 27.04041158218403
rwrist 6.490940063452655
rhand -15.796402863319555 20.95752657305529
rfingers 7.125020000000033
rthumb 10.374872765681308 -8.519520514316993
lclavicle -6.54815279791907E-16 -3.2081178913776305E-16
lhumerus -29.594873152952516 1.4425290307039873 77.93440995812128
lradius 28.76564039050246
lwrist 3.108028453400779
lhand -23.74828674150301 23.32456055048803
lfingers 7.125020000000038
lthumb 2.666157494477286 52.99441580912111
rfemur -2.3814190055427673 -8.31392551893201 13.819756219901237
rtibia 39.05773462018565
rfoot -8.990170842356546 -8.213366644498096
rtoes 6.40003211352138
lfemur -14.185952157182733 -0.5284233724952756 -20.77358013115159
ltibia 34.30363533908333
lfoot -9.16304708374232 -0.4559431539510257
ltoes -2.0581611012602323
91
root 0 0 0 -1.1250122338562214 -2.699661122356133 -2.445136763301539
lowerback 9.459111519744475 0.35040913655088723 0.6796449179677553
upperback 0.01931145407878887 0.6835042137014262 1.7344835983239273
thorax -5.18020258502957 0.35457469373533335 1.3451850428777763
lowerneck -16.49733556155005 -2.9817423515030916 -1.944235431567777
upperneck 19.858586936435195 -3.8173594070870247 0.6806957776430429
head 9.046400635694788 -1.85333660106846 0.07525066811420111
rclavicle -6.611829494529697E-16 -4.803625736737647E-16
rhumerus -23.95817774208873 -18.849098870520677 -75.05431603952742
rradius 27.03550643199103
rwrist 6.376932399286076
rhand -15.90008706502211 21.042355267239657
rfingers 7.125020000000035
rthumb 10.275030571519327 -8.446726871820042
lclavicle -6.598452285961536E-16 -3.1399578820100226E-16
lhumerus -29.736239486660097 1.4126338947427133 78.15769986427489
lradius 28.728211627234188
lwrist 3.211055817703331
lhand -23.90828177804546 23.320561705076496
lfingers 7.125020000000041
lthumb 2.5114216380993852 53.00815490734534
rfemur -2.921635394910737 -7.656188216666138 14.459127252235106
rtibia 39.028467880716235
rfoot -8.918173876783461 -8.128035105398542
rtoes 6.274596377030441
lfemur -13.91196832126628 -0.6072258545029836 -20.712444005061208
ltibia 34.20612580431816
lfoot -9.072080973121917 -0.5890546127408882
ltoes -2.164518051280222
